PathFileType	3	(X/Y/Z)	D:\minhoCalibration\240510\subject2_KPNP\preferred\preferred08.trc
DataRate	CameraRate	NumFrames	NumMarkers	Units	OrigDataRate	OrigDataStartFrame	OrigNumFrames
200.0	200.0	21	10	mm	200.0	602	229	
Frame#	Time	Left_Ankle_Outer1			Left_Ankle_Inner1			Left_Knee_Outer1			Left_Knee_Inner1			Left_Wrist1			Right_Wrist1			Right_Knee_Inner1			Right_Knee_Outer1			Right_Ankle_Inner1			Right_Ankle_Outer1			
		X1	Y1	Z1	X2	Y2	Z2	X3	Y3	Z3	X4	Y4	Z4	X5	Y5	Z5	X6	Y6	Z6	X7	Y7	Z7	X8	Y8	Z8	X9	Y9	Z9	X10	Y10	Z10	
602	3	-509.49121	86.432945	-786.85858	-538.01123	92.948586	-737.49414	-369.42831	510.6163	-737.07794	-447.64053	495.53821	-682.95941	-344.13742	999.75171	-766.7204	-681.03027	1007.1138	-719.75745	-694.81165	502.08844	-615.24963	-773.32343	544.04016	-650.04761	-679.13184	158.64085	-837.71545	-766.50446	182.28154	-881.89343
603	3.005	-509.24152	86.467636	-786.85077	-539.96869	90.824127	-740.99921	-369.03546	510.63657	-735.64783	-447.3735	495.51352	-682.19031	-345.25958	1000.0142	-765.78503	-682.85352	1005.7967	-723.17633	-698.57501	501.09418	-620.51245	-775.6394	542.6275	-659.26685	-681.86285	156.65997	-845.25629	-768.90985	180.46896	-890.23767
604	3.01	-508.92426	86.48439	-786.89661	-538.55878	93.178497	-736.09961	-368.58621	510.79453	-734.45782	-447.20767	495.54593	-681.44214	-346.3988	1000.2654	-764.93036	-684.64148	1004.7171	-726.15082	-701.43488	499.71902	-629.49713	-778.0033	541.30688	-668.2016	-684.66797	154.47391	-852.47333	-771.38129	178.84119	-898.67047
605	3.015	-508.60339	86.489357	-787.00171	-538.57776	92.709099	-736.93073	-368.50388	510.8891	-733.14771	-447.28415	495.84247	-679.74927	-347.54758	1000.4792	-764.18781	-686.82654	1003.0701	-728.58673	-703.94501	497.75793	-637.95587	-780.02252	540.05225	-677.604	-687.81287	152.01602	-859.2196	-773.72839	176.73204	-906.18292
606	3.02	-508.2001	86.483833	-787.16431	-538.34167	92.853401	-736.9057	-368.20822	511.05099	-732.06812	-447.09756	495.5466	-680.28784	-348.9072	1000.7607	-763.3681	-688.18921	1001.5899	-732.70135	-706.65265	496.56854	-646.43188	-781.84839	538.90417	-686.55939	-690.92096	149.32968	-866.08447	-776.23657	174.65033	-913.8396
607	3.025	-507.80655	86.390266	-787.34528	-538.30865	90.854332	-743.51459	-368.15814	511.22147	-731.0097	-447.26523	495.58997	-679.78143	-350.2662	1001.0691	-762.62787	-689.84528	1000.6035	-735.72913	-708.83685	495.32358	-654.57111	-783.74243	537.27942	-695.73669	-694.35846	146.77272	-872.13898	-778.59137	172.94746	-921.59827
608	3.03	-507.44891	86.237946	-787.54047	-537.68469	93.011597	-737.70764	-368.15945	511.38269	-729.86963	-447.57639	495.71112	-679.39447	-351.69812	1001.3936	-761.93707	-691.34698	998.49536	-740.65723	-711.90332	493.7821	-664.25629	-784.7948	536.63293	-705.18115	-697.31775	144.32753	-878.48602	-781.05188	170.536	-928.48163
609	3.035	-507.20041	86.022942	-787.75708	-537.73669	92.714073	-738.26147	-368.19507	511.48837	-728.81384	-448.02408	495.81879	-679.12665	-353.14175	1001.7623	-761.37195	-693.66547	997.64954	-740.81952	-713.71552	492.69379	-671.98535	-786.51715	535.26013	-713.83771	-700.51569	141.81804	-884.20142	-783.37122	168.57277	-935.47314
610	3.04	-507.01385	85.811897	-787.90045	-537.82587	92.744186	-738.20392	-368.31744	511.55621	-727.77533	-448.5856	495.96799	-678.74329	-354.93393	1001.988	-760.66656	-694.29321	996.51678	-746.75653	-716.01251	491.79834	-680.48035	-787.22028	534.66443	-723.7052	-703.79889	139.20358	-889.80701	-785.75922	166.55168	-942.29578
611	3.045	-506.87695	85.600334	-787.97076	-538.18628	90.274513	-745.41248	-368.58633	511.44617	-726.6748	-449.22842	496.04758	-678.47333	-356.42407	1002.2236	-760.29401	-697.13245	994.86768	-747.14093	-717.72461	490.83447	-687.85052	-788.13403	533.71082	-733.258	-707.21039	136.57629	-894.96143	-788.09186	164.53926	-948.88678
612	3.05	-506.78461	85.371727	-787.97827	-537.91138	89.970291	-745.29083	-368.80518	511.47537	-725.66479	-449.92325	496.04871	-678.1264	-358.16077	1002.4315	-759.82947	-698.50995	993.28058	-751.80774	-719.06873	490.05179	-696.14276	-788.19995	532.90625	-742.0816	-710.70764	133.96602	-900.0058	-790.41309	162.89047	-955.65759
613	3.055	-506.76715	85.156555	-787.90131	-538.10236	89.753105	-744.94861	-368.92404	511.37711	-724.6795	-450.67618	496.00192	-677.81915	-359.91943	1002.6036	-759.42041	-700.2251	992.0105	-755.91473	-720.69434	489.33942	-704.31732	-788.94165	531.72052	-751.28857	-714.14996	131.33527	-904.86127	-792.70392	160.87123	-961.81323
614	3.06	-506.76297	85.047287	-787.76764	-538.96625	91.087555	-738.38562	-369.25153	511.23221	-723.5647	-451.52982	495.81281	-677.59772	-361.88745	1002.6176	-759.01221	-701.97711	990.92181	-758.63031	-721.25995	488.35312	-710.40747	-789.03156	530.90918	-760.66382	-717.68292	128.84534	-909.32538	-794.97565	159.1282	-967.8501
615	3.065	-506.78522	84.951035	-787.57605	-538.57928	91.488655	-737.89813	-369.70905	511.02621	-722.51764	-452.43246	495.71957	-677.1283	-363.83096	1002.5981	-758.92834	-704.97986	989.20135	-759.98669	-720.6756	484.93906	-725.2193	-789.35498	529.92743	-768.03748	-721.22809	126.49192	-913.58282	-797.1908	157.31926	-973.56177
616	3.07	-506.82544	84.981163	-787.35352	-537.88348	90.724892	-740.74927	-370.23947	510.89145	-721.50201	-453.23358	495.66187	-676.49396	-366.3887	1002.3636	-758.54443	-706.41345	987.39777	-766.11414	-723.96545	486.85843	-727.23077	-789.5011	529.13702	-776.2298	-724.69763	124.17681	-917.77972	-799.27759	155.30479	-978.81427
617	3.075	-506.84781	85.057938	-787.12726	-539.2403	90.655495	-737.77454	-370.72116	510.83832	-720.47095	-453.85754	495.14093	-676.74609	-367.95621	1002.3286	-758.57471	-708.59088	986.92755	-767.34491	-723.02417	485.07095	-731.57214	-789.24036	528.87408	-784.57385	-728.25256	122.02873	-921.77917	-801.5105	154.01422	-984.51202
618	3.08	-506.90298	85.040001	-786.86383	-539.27625	90.528366	-737.63629	-371.39694	510.81717	-719.38898	-455.46274	495.41919	-675.30328	-370.22925	1002.2432	-758.57971	-710.53748	985.72955	-771.02026	-724.22882	484.24707	-740.68591	-789.40515	527.61414	-791.5686	-732.01654	120.4916	-925.22913	-803.39709	152.34834	-989.52246
619	3.085	-506.89542	85.064255	-786.64032	-539.32904	90.38179	-737.38092	-371.95227	510.89191	-718.315	-456.36453	495.49722	-675.54248	-372.26331	1002.1841	-758.57397	-711.44202	984.90881	-776.80035	-724.84332	483.21469	-747.27649	-789.57239	526.966	-798.71674	-735.11951	118.38442	-929.49933	-805.33887	151.02336	-994.68811
620	3.09	-506.95633	85.11528	-786.42438	-539.59198	88.54583	-742.42664	-372.48294	511.03616	-717.1394	-457.24042	495.47327	-675.25293	-374.72266	1002.0245	-758.87061	-714.86743	983.6344	-777.67572	-725.56329	482.36133	-753.72601	-786.7431	523.41052	-813.99701	-738.29736	116.99178	-933.29578	-807.20331	149.78275	-999.84033
621	3.095	-506.89297	85.205345	-786.25214	-540.23743	87.903931	-742.57721	-373.0665	511.29913	-716.03546	-458.23584	495.59079	-674.88922	-376.98666	1001.9983	-758.99823	-717.12982	982.02338	-781.98901	-727.8158	485.45584	-749.96472	-789.8656	526.02228	-812.59808	-741.02307	116.05565	-937.36487	-809.14954	148.59303	-1004.7306
622	3.1	-506.86551	85.263649	-786.09998	-539.58002	88.514664	-742.39484	-373.68442	511.57874	-714.83392	-459.21667	495.79846	-674.57886	-379.46204	1001.9395	-759.41931	-719.68927	981.28363	-783.98785	-727.18396	481.3522	-765.77655	-789.91046	525.40192	-819.22461	-743.12366	115.08898	-941.73486	-811.33539	147.30888	-1009.1131
